<svg width="215" height="215" viewBox="0 0 215 215" fill="none" xmlns="http://www.w3.org/2000/svg">
<g id="uim:clock">
<path id="Vector" d="M107.5 53.75C109.876 53.75 112.154 54.6938 113.834 56.3738C115.514 58.0539 116.458 60.3324 116.458 62.7083V102.322L135.253 113.18C137.294 114.376 138.778 116.331 139.383 118.618C139.988 120.905 139.663 123.338 138.48 125.387C137.297 127.436 135.352 128.933 133.069 129.553C130.786 130.173 128.351 129.865 126.294 128.695L103.021 115.258C101.659 114.472 100.528 113.341 99.7417 111.979C98.9555 110.617 98.5415 109.072 98.5415 107.5V62.7083C98.5415 60.3324 99.4853 58.0539 101.165 56.3738C102.845 54.6938 105.124 53.75 107.5 53.75Z" fill="#B60051"/>
<path id="Vector_2" opacity="0.5" d="M17.9165 107.5C17.9165 125.218 23.1705 142.538 33.014 157.27C42.8576 172.002 56.8486 183.484 73.2178 190.265C89.587 197.045 107.599 198.819 124.977 195.362C142.354 191.906 158.316 183.374 170.845 170.845C183.373 158.317 191.905 142.355 195.362 124.977C198.818 107.6 197.044 89.5875 190.264 73.2183C183.484 56.849 172.002 42.858 157.27 33.0145C142.538 23.171 125.218 17.917 107.5 17.917C95.7356 17.917 84.0865 20.2341 73.2178 24.7361C62.349 29.2381 52.4734 35.8368 44.1549 44.1553C27.3547 60.9555 17.9165 83.7413 17.9165 107.5ZM98.5415 62.7087C98.5415 60.3328 99.4853 58.0542 101.165 56.3742C102.845 54.6941 105.124 53.7503 107.5 53.7503C109.876 53.7503 112.154 54.6941 113.834 56.3742C115.514 58.0542 116.458 60.3328 116.458 62.7087V102.322L135.253 113.18C137.294 114.376 138.778 116.331 139.383 118.618C139.988 120.905 139.663 123.339 138.48 125.387C137.297 127.436 135.352 128.934 133.069 129.553C130.786 130.173 128.351 129.865 126.294 128.696L103.021 115.258C101.659 114.472 100.528 113.341 99.7417 111.979C98.9555 110.618 98.5415 109.073 98.5415 107.5V62.7087Z" fill="#B60051"/>
</g>
</svg>
